<svg width="87" height="30" viewBox="0 0 87 30" fill="none" xmlns="http://www.w3.org/2000/svg">
<rect width="87" height="30" fill="#F5F5F5"/>
<g clip-path="url(#clip0_2_356)">
<path d="M1.805 1.294L18.405 0.0679999C20.444 -0.107 20.968 0.011 22.25 0.943L27.549 4.676C28.423 5.318 28.714 5.493 28.714 6.192V26.665C28.714 27.948 28.248 28.707 26.617 28.823L7.34 29.99C6.116 30.048 5.533 29.873 4.892 29.056L0.99 23.982C0.29 23.048 0 22.349 0 21.532V3.334C0 2.285 0.466 1.41 1.805 1.294Z" fill="white"/>
<path fill-rule="evenodd" clip-rule="evenodd" d="M18.405 0.0679999L1.805 1.294C0.466 1.41 0 2.285 0 3.334V21.532C0 22.349 0.29 23.048 0.99 23.982L4.892 29.056C5.533 29.873 6.116 30.048 7.34 29.99L26.617 28.823C28.247 28.707 28.714 27.948 28.714 26.665V6.192C28.714 5.529 28.452 5.338 27.681 4.772C27.6366 4.74004 27.5923 4.70804 27.548 4.676L22.25 0.943C20.968 0.011 20.444 -0.107 18.405 0.0679999ZM7.776 5.857C6.202 5.963 5.845 5.987 4.951 5.26L2.678 3.452C2.447 3.218 2.563 2.926 3.145 2.868L19.103 1.702C20.443 1.585 21.141 2.052 21.665 2.46L24.402 4.443C24.519 4.502 24.81 4.851 24.46 4.851L7.98 5.843L7.776 5.857ZM5.941 26.49V9.11C5.941 8.351 6.174 8.001 6.872 7.942L25.8 6.834C26.442 6.776 26.732 7.184 26.732 7.942V25.206C26.732 25.965 26.615 26.607 25.567 26.665L7.454 27.715C6.406 27.773 5.941 27.424 5.941 26.49ZM23.821 10.042C23.937 10.567 23.821 11.092 23.296 11.152L22.423 11.325V24.157C21.665 24.565 20.967 24.798 20.384 24.798C19.452 24.798 19.219 24.506 18.521 23.632L12.812 14.65V23.34L14.618 23.749C14.618 23.749 14.618 24.799 13.161 24.799L9.144 25.032C9.027 24.798 9.144 24.215 9.551 24.099L10.6 23.808V12.318L9.144 12.2C9.027 11.675 9.318 10.917 10.134 10.858L14.444 10.568L20.384 19.666V11.617L18.87 11.443C18.753 10.8 19.219 10.333 19.801 10.276L23.821 10.042Z" fill="black"/>
<path d="M41.434 21.251V13.341H41.571L47.275 21.251H49.071V9.627H47.074V17.529H46.937L41.233 9.627H39.43V21.25H41.435L41.434 21.251ZM54.715 21.429C57.35 21.429 58.953 19.705 58.953 16.845C58.953 13.993 57.342 12.261 54.715 12.261C52.097 12.261 50.478 14.001 50.478 16.845C50.478 19.705 52.073 21.429 54.715 21.429ZM54.715 19.753C53.322 19.753 52.525 18.69 52.525 16.845C52.525 15.008 53.322 13.937 54.715 13.937C56.101 13.937 56.898 15.008 56.898 16.845C56.898 18.69 56.109 19.753 54.715 19.753ZM60.778 10.28V12.495H59.385V14.09H60.778V18.899C60.778 20.607 61.584 21.292 63.606 21.292C63.992 21.292 64.363 21.252 64.653 21.195V19.632C64.411 19.656 64.258 19.672 63.976 19.672C63.139 19.672 62.768 19.286 62.768 18.416V14.09H64.653V12.495H62.768V10.279H60.778V10.28ZM65.85 21.251H67.84V12.438H65.85V21.251ZM66.841 10.981C67.501 10.981 68.033 10.448 68.033 9.78C68.033 9.111 67.502 8.571 66.841 8.571C66.189 8.571 65.649 9.111 65.649 9.78C65.649 10.448 66.189 10.98 66.841 10.98V10.981ZM73.299 21.429C75.933 21.429 77.536 19.705 77.536 16.845C77.536 13.993 75.925 12.261 73.299 12.261C70.68 12.261 69.061 14.001 69.061 16.845C69.061 19.705 70.656 21.429 73.299 21.429ZM73.299 19.753C71.905 19.753 71.107 18.69 71.107 16.845C71.107 15.008 71.905 13.937 73.299 13.937C74.684 13.937 75.482 15.008 75.482 16.845C75.482 18.69 74.692 19.753 73.299 19.753ZM78.725 21.251H80.723V16.12C80.723 14.823 81.473 14.001 82.664 14.001C83.881 14.001 84.444 14.678 84.444 16.023V21.251H86.443V15.548C86.443 13.445 85.371 12.261 83.406 12.261C82.092 12.261 81.206 12.865 80.787 13.848H80.65V12.438H78.725V21.251Z" fill="black"/>
</g>
<defs>
<clipPath id="clip0_2_356">
<rect width="87" height="30" fill="white"/>
</clipPath>
</defs>
</svg>
